PathFileType	4	(X/Y/Z)	s10c0202.trc
DataRate	CameraRate	NumFrames	NumMarkers	Units	OrigDataRate	OrigDataStartFrame	OrigNumFrames
200	200	7	50	mm	200	500	2000
Frame#	Time	racr			lacr			c7			jug			rlel			rdr			llel			ldr			s2			lic			ric			lasi			rasi			rpsi			lpsi			rgt			lgt			rth1			rth2			rth3			rth4			rlfc			rmfc			rsh1			rsh2			rsh3			rsh4			rlmal			rmmal			rcal			rtoe			rmt5			lth1			lth2			lth4			lth3			llfc			lmfc			llmal			lmmal			lcal			lmt5			lsh1			lsh2			lsh3			lsh4			ltoe			SBIKE			LBIKE			RBIKE			
		X1	Y1	Z1	X2	Y2	Z2	X3	Y3	Z3	X4	Y4	Z4	X5	Y5	Z5	X6	Y6	Z6	X7	Y7	Z7	X8	Y8	Z8	X9	Y9	Z9	X10	Y10	Z10	X11	Y11	Z11	X12	Y12	Z12	X13	Y13	Z13	X14	Y14	Z14	X15	Y15	Z15	X16	Y16	Z16	X17	Y17	Z17	X18	Y18	Z18	X19	Y19	Z19	X20	Y20	Z20	X21	Y21	Z21	X22	Y22	Z22	X23	Y23	Z23	X24	Y24	Z24	X25	Y25	Z25	X26	Y26	Z26	X27	Y27	Z27	X28	Y28	Z28	X29	Y29	Z29	X30	Y30	Z30	X31	Y31	Z31	X32	Y32	Z32	X33	Y33	Z33	X34	Y34	Z34	X35	Y35	Z35	X36	Y36	Z36	X37	Y37	Z37	X38	Y38	Z38	X39	Y39	Z39	X40	Y40	Z40	X41	Y41	Z41	X42	Y42	Z42	X43	Y43	Z43	X44	Y44	Z44	X45	Y45	Z45	X46	Y46	Z46	X47	Y47	Z47	X48	Y48	Z48	X49	Y49	Z49	X50	Y50	Z50	
500	2.5000	395.742623	1219.594035	-52.942221	427.451274	1218.603970	-332.088224	359.042985	1282.405402	-200.161296	333.431489	1130.573061	-193.661785	399.630702	973.758031	53.895464	591.509595	915.763811	-38.070924	417.172648	1008.329300	-512.713414	591.053786	908.165691	-421.811424	-171.661880	1095.553785	-228.158232	-8.770801	1115.081956	-388.139632	-3.842196	1128.120100	-87.223805	25.496343	1031.652311	-356.747732	12.134916	1052.219312	-92.964231	-131.911450	1159.290294	-178.187255	-121.427346	1168.253141	-288.538091	-89.913998	1019.657004	-36.469067	-102.848153	969.417345	-413.905611	40.524099	943.033063	-26.621988	126.210246	936.465734	-47.905218	196.228046	888.100845	-56.803549	135.937787	971.829505	-57.053192	298.910458	843.924403	-85.708200	275.604327	826.697509	-202.179085	244.478564	746.154278	-49.523458	230.514528	658.682867	-59.039251	178.299249	590.300327	-53.438204	254.569612	650.054448	-88.797546	136.544949	494.762347	-63.965406	149.586487	509.913186	-149.704687	85.064754	452.354459	-105.970795	322.199496	503.430269	-102.689307	252.157906	453.796161	-39.315493	-18.854011	866.917582	-429.991954	55.782478	823.215995	-418.784589	80.949735	849.039954	-412.703591	99.779443	746.764098	-408.270244	164.240914	661.090013	-388.079974	167.183490	657.316972	-271.252472	-7.940888	319.931749	-380.986516	12.311298	315.011022	-304.076533	-61.544486	313.947374	-333.583484	59.111442	183.744894	-398.798297	87.049111	560.682512	-417.748852	81.590823	474.982059	-402.815171	31.135444	401.672495	-396.964421	110.679581	468.384424	-379.116579	144.777069	163.809239	-344.247662	-218.269507	831.859080	-213.576669	-103.983449	80.388289	-418.271148	-104.092208	80.407597	-18.463979	
501	2.5050	397.014005	1217.561118	-52.138231	428.595614	1216.683485	-332.231118	360.887754	1280.371196	-199.260694	334.332918	1128.897645	-193.267015	399.197986	971.833843	54.430892	591.055426	915.565766	-38.046565	416.584472	1007.313138	-512.985851	590.156010	907.595514	-421.253552	-170.808994	1096.118627	-227.162787	-8.181933	1115.482120	-387.422609	-2.496335	1127.346851	-86.688503	25.606862	1031.700414	-356.389649	13.155045	1051.382857	-92.578357	-130.384084	1159.395028	-177.279160	-120.332757	1168.808776	-287.638607	-88.930580	1018.807679	-35.902670	-102.625205	969.922546	-413.545863	40.988261	941.054977	-26.107164	126.605627	933.873364	-47.221326	196.251135	884.854897	-56.677442	136.608268	969.192880	-56.272062	298.626403	841.047862	-84.823962	275.075852	823.988223	-201.269007	245.228135	742.131526	-48.708718	232.339933	654.464669	-58.445891	180.942254	585.584273	-53.019875	256.475906	646.248387	-88.175209	140.391384	489.208190	-63.823238	153.339199	504.768453	-149.542756	89.144439	446.719937	-105.565744	325.997928	499.753952	-102.803399	256.479442	449.497338	-39.333583	-17.984637	867.365324	-429.699557	56.806931	823.964993	-418.259250	81.809803	849.953517	-411.857708	100.977219	747.675750	-407.944064	165.604737	662.278179	-387.726269	166.685233	657.689048	-270.756636	-12.432086	323.815300	-380.826322	8.105071	318.659244	-303.998138	-65.978016	317.929034	-333.316537	54.466454	187.724970	-398.777143	86.827430	562.638891	-417.959951	79.994446	477.007883	-402.733934	28.425343	404.566529	-396.848740	108.856518	470.125810	-378.882007	140.171609	167.707953	-344.158112	-218.263472	831.846878	-213.555232	-103.981604	80.368076	-418.274287	-104.107607	80.393591	-18.480483	
502	2.5100	398.334229	1215.639510	-51.300929	429.657811	1215.076787	-332.273515	363.028615	1278.875621	-199.369460	335.159606	1127.226346	-193.080572	398.848571	970.019853	54.956249	590.651349	915.329917	-38.029896	415.896424	1006.394706	-513.353153	589.268984	907.127201	-420.717139	-169.829054	1096.776348	-226.330997	-7.533486	1115.755358	-386.499101	-1.105037	1126.496123	-86.181231	25.779398	1031.779211	-356.013968	14.414177	1050.638213	-91.911424	-128.729575	1159.558310	-176.504104	-118.984221	1169.573086	-286.957919	-87.732584	1018.254099	-35.109466	-102.326062	970.466915	-413.191180	41.499573	939.302763	-25.243212	127.003794	931.477215	-46.243133	196.160126	881.864406	-56.187289	137.323544	966.839672	-55.381991	298.137569	838.060051	-84.237072	274.393707	821.370907	-200.599227	245.842357	738.082129	-47.944462	234.069728	650.230525	-57.797889	183.473589	580.748639	-52.704392	258.311566	642.438802	-87.547485	144.123795	483.589906	-63.694252	156.898969	499.598428	-149.289704	93.573116	440.504068	-105.858323	329.805932	495.970099	-102.776933	260.741027	444.941731	-39.315119	-17.131358	867.794457	-429.582565	57.725958	824.636874	-417.842387	82.665766	850.669518	-411.028666	102.158430	748.511712	-407.817483	166.852619	663.230322	-387.530263	166.002930	657.961781	-270.510477	-16.907824	327.957403	-380.624487	4.101970	322.174461	-303.912763	-70.466355	322.129602	-333.096806	49.905189	192.043117	-398.727430	86.640379	564.674430	-418.251170	78.432671	479.161220	-402.718838	25.730501	407.485402	-396.803018	107.066752	471.993068	-378.720889	135.628214	172.083518	-344.153119	-218.247595	831.855973	-213.554873	-103.972701	80.404402	-418.276046	-104.132968	80.401518	-18.517547	
503	2.5150	399.730037	1213.809534	-50.477322	430.671330	1213.816329	-332.300087	364.941451	1277.143561	-199.173151	336.185745	1125.874248	-192.660933	398.455948	968.134782	55.410895	590.324644	915.147603	-37.971204	415.403644	1005.654999	-513.636876	588.450458	906.618740	-420.136491	-168.796770	1097.344453	-225.267199	-6.799930	1116.172542	-385.765162	0.371155	1125.666686	-85.657572	25.960374	1031.918822	-355.591355	15.560769	1049.637431	-91.532394	-127.063238	1159.635204	-175.480014	-117.824298	1170.236471	-285.912404	-86.558833	1017.943392	-34.390604	-101.983753	971.021020	-412.846205	41.591824	937.864727	-23.994264	127.315492	928.942368	-45.491077	195.959350	878.735013	-55.693035	137.855327	964.263536	-54.619683	297.520499	834.868421	-83.677088	273.718202	818.544415	-199.635857	246.442036	734.024352	-47.146325	235.760431	646.106716	-57.175225	185.884286	575.950688	-52.361194	260.055218	638.714686	-86.973060	147.938331	477.934859	-63.433178	160.522657	494.223374	-149.129291	98.021225	434.917801	-105.322726	333.477331	491.944531	-102.853949	264.859373	440.361096	-39.278057	-16.268278	868.208863	-429.510889	58.674011	825.408320	-417.538659	83.417398	851.374659	-410.217718	103.223699	749.204647	-407.816600	168.139682	664.268236	-387.506920	166.290865	658.191099	-270.092617	-21.181908	332.290971	-380.334369	-0.690854	326.592424	-303.420844	-74.898543	326.348875	-332.888095	45.520912	196.319026	-398.604016	86.457692	566.743587	-418.546001	76.875855	481.528703	-402.722013	22.990364	410.569546	-396.731580	105.198730	473.824404	-378.501542	131.272316	176.404749	-344.048461	-218.206721	831.867814	-213.515312	-103.975228	80.406044	-418.300081	-104.126380	80.403831	-18.522183	
504	2.5200	401.173825	1212.066241	-49.689272	431.682716	1212.852273	-332.084464	367.137801	1276.175425	-199.922754	337.158724	1124.550142	-192.426817	398.061756	966.311478	55.845222	590.090799	914.966814	-37.892967	414.925067	1004.920654	-513.844529	587.771231	906.233455	-419.731853	-167.699849	1097.955491	-224.412775	-5.978236	1116.733587	-384.931982	1.926813	1124.876873	-85.228818	26.102817	1032.126666	-355.209948	16.457254	1048.698876	-91.557573	-125.233663	1159.791703	-174.806794	-116.375875	1170.689425	-285.256566	-85.324812	1017.790848	-33.744076	-101.597237	971.628713	-412.600263	41.871211	936.293997	-22.904188	127.482848	926.452388	-44.875098	195.624995	875.664546	-55.189699	138.366888	961.747699	-53.799147	296.786700	831.144724	-82.927284	272.977248	815.605767	-198.742793	246.901962	729.927894	-46.442293	237.293275	641.891014	-56.642842	188.233157	571.138581	-52.055924	261.712082	634.793875	-86.391310	151.609387	472.263407	-63.187399	164.082056	489.021679	-148.952786	101.575632	429.195085	-105.253266	337.043560	487.749018	-102.721275	268.843829	435.444277	-39.300878	-15.374077	868.764682	-429.520166	59.608617	826.074577	-417.302362	84.284737	852.102065	-409.549469	103.681821	749.516445	-407.253431	169.298550	665.244667	-387.648218	166.647450	658.271298	-269.776925	-25.351323	336.650023	-380.033957	-3.839517	330.091448	-303.400805	-79.254030	330.758841	-332.643305	41.264782	200.892857	-398.492371	86.334024	568.926086	-418.861095	75.363303	483.856999	-402.814643	20.256156	413.911760	-396.724990	103.454992	475.826488	-378.380045	127.058405	181.138562	-344.022939	-218.116759	831.721182	-213.760646	-103.967302	80.399289	-418.271499	-104.135469	80.389578	-18.512789	
505	2.5250	402.670813	1210.398389	-48.861040	432.535675	1212.184539	-331.810700	368.858580	1274.784328	-199.403971	338.263740	1123.490818	-192.268111	397.688453	964.410424	56.183619	589.904758	914.772159	-37.779022	414.497305	1004.368876	-514.048736	587.213354	905.987494	-419.431912	-166.609602	1098.554238	-223.624818	-5.114137	1117.330893	-384.176207	3.518117	1123.952336	-84.707226	26.250993	1032.425433	-354.794837	17.654553	1047.692772	-91.202310	-123.509885	1159.800785	-173.961133	-115.102290	1171.101361	-284.166485	-84.235352	1017.871474	-33.092607	-101.204197	972.279949	-412.346539	42.038224	934.501005	-22.496955	127.563190	924.007026	-44.239276	195.132288	872.433488	-54.668989	138.855180	959.153879	-52.991865	295.909965	827.851814	-82.216701	272.221684	812.668799	-197.760354	247.316205	725.652493	-45.714587	238.720755	637.571906	-56.075042	190.522811	566.176696	-51.710672	263.247939	630.805087	-85.824193	155.304726	466.732468	-62.296584	167.315948	483.740942	-148.737269	105.404360	423.521644	-104.683449	340.569645	483.329524	-102.681700	272.805700	430.526218	-39.221258	-14.484122	869.378068	-429.604667	60.480019	826.707198	-417.087771	85.044404	852.818976	-408.959434	104.693843	750.209938	-407.467104	170.440928	666.278969	-387.766885	167.287517	658.375103	-269.584375	-29.283233	341.320783	-379.683480	-8.116636	334.598454	-302.940611	-83.392335	335.320366	-332.386151	37.114833	205.538984	-398.435398	86.333756	571.298903	-419.172660	73.901328	486.385792	-402.790282	17.630472	417.359901	-396.668569	101.758731	478.129517	-378.393402	123.005195	185.770969	-343.986375	-218.107235	831.734811	-213.715531	-103.960346	80.407575	-418.276384	-104.168552	80.348304	-18.514808	
506	2.5300	404.163566	1208.854307	-48.035944	433.486183	1211.751179	-331.419167	370.893561	1273.360169	-198.760088	339.449222	1122.453587	-191.991339	397.280793	962.599613	56.493420	589.757112	914.609800	-37.662284	414.216262	1003.856118	-514.108537	586.810369	905.814672	-419.303829	-165.458880	1099.267338	-222.766898	-4.226577	1117.765501	-383.294482	5.131993	1123.262835	-84.248526	26.434875	1032.698133	-354.401371	18.911930	1046.961278	-90.822876	-121.923979	1160.044256	-173.031784	-114.586764	1171.901711	-282.804527	-82.330499	1017.913977	-33.026048	-100.718369	973.000037	-412.189918	42.226137	932.783849	-21.980801	127.502387	921.601477	-43.597292	194.484973	869.252690	-54.159292	139.181847	956.688447	-52.273408	295.025697	824.285303	-81.618236	271.368719	809.588111	-197.068677	247.621884	721.301634	-45.032438	240.048986	633.224715	-55.529416	192.643660	561.345041	-51.351896	264.977494	626.686004	-84.718707	158.841321	460.934651	-62.038323	170.582752	477.935261	-148.288402	108.840289	418.746411	-103.338050	344.005971	478.688521	-102.685211	276.433128	425.476207	-39.248792	-13.575657	869.985038	-429.573088	61.462057	827.446951	-416.986875	85.943672	853.500200	-408.501306	105.657574	750.969792	-407.734860	171.666056	667.316555	-388.165747	167.619083	658.865578	-269.980814	-33.070423	345.995429	-379.369492	-12.048456	339.139544	-302.501775	-87.439708	339.965392	-332.107433	33.147095	210.451130	-398.334399	86.494147	573.952655	-419.783626	72.537414	489.239993	-402.904255	15.097721	421.154224	-396.536636	100.160944	480.536492	-378.277239	119.083674	190.798997	-343.982157	-218.079188	831.736102	-213.712378	-103.944173	80.432332	-418.283965	-104.189099	80.342277	-18.534631	
